<svg t="1621243962204" className="icon" viewBox="0 0 1024 1024" version="1.1" xmlns="http://www.w3.org/2000/svg" p-id="17024" width="30" height="30"><path d="M514.554684 552.2364c-28.231995 0-51.567469 23.121604-51.567469 51.081399 0 27.960819 23.335475 51.073212 51.567469 51.073212 28.216645 0 51.55212-23.112394 51.55212-51.073212C566.106804 575.358003 542.771329 552.2364 514.554684 552.2364z" p-id="17025" fill="#fff"></path><path d="M916.282185 118.879528l-811.246455 0c-23.178909 0-41.961694 18.255783-41.961694 40.774659l0 584.417333c0 22.518876 18.782785 40.790008 41.961694 40.790008l55.946196 0 0 81.532945c0 2.803859 0.296759 5.558599 0.849344 8.212032 0.396019 1.847068 1.071402 3.595898 1.706875 5.343705 0.280386 0.75827 0.420579 1.584078 0.741897 2.309602 0.676405 1.549286 1.607614 2.967588 2.465145 4.418636 0.494257 0.824785 0.857531 1.715061 1.401929 2.506077 1.369184 1.979074 2.960425 3.793396 4.659113 5.492084 0.172939 0.164752 0.296759 0.379647 0.461511 0.543376 7.479345 7.257288 17.777899 11.742439 29.157064 11.874445 0.172939 0.016373 0.338714 0.065492 0.51984 0.065492 11.584849 0 22.073738-4.550643 29.667693-11.939937l113.600291-110.35948 10.587126 0 559.482431 0c23.153326 0 41.953508-18.271132 41.953508-40.790008L958.235692 159.654186C958.235692 137.13531 939.435511 118.879528 916.282185 118.879528zM874.311281 703.296861 426.722266 703.296861 311.44887 703.296861l-66.550719 64.661695 0-64.661695-41.953508 0-55.946196 0L146.998447 200.428845l727.313857 0L874.312304 703.296861z" p-id="17026" fill="#fff"></path><path d="M512.378112 346.302167c21.703301 0 32.55444 13.984503 32.55444 32.801057 0 8.599865-6.497994 20.968567-14.644535 30.112832l-37.996382 44.089148c-16.276708 18.816554-22.246677 35.489282-22.246677 59.681264l0 12.360516 89.00308 0 0-4.832052c0-9.144264 4.881171-19.360953 9.763364-25.272593l37.467333-46.785559c15.188934-19.352767 27.672246-40.856523 27.672246-68.817342 0-74.738192-57.521065-112.915699-121.573893-112.915699-65.667605 0-121.573893 40.321334-121.573893 113.451912l89.004103 0C479.808322 360.814696 489.587036 346.302167 512.378112 346.302167z" p-id="17027" fill="#fff"></path></svg>