<svg t="1621423496825" className="icon" viewBox="0 0 1058 1024" version="1.1" xmlns="http://www.w3.org/2000/svg" p-id="6343" width="30" height="30"><path d="M1012.266667 242.895238c19.809524 19.809524 19.809524 51.809524 0 71.619048L797.257143 529.52381c-19.809524 19.809524-51.809524 19.809524-71.619048 0L510.628571 314.514286c-19.809524-19.809524-19.809524-51.809524 0-71.619048L725.638095 27.885714c19.809524-19.809524 51.809524-19.809524 71.619048 0l215.009524 215.009524M761.447619 87.619048L570.361905 278.704762l191.085714 191.085714 191.085714-191.085714L761.447619 87.619048zM926.32381 571.885714c30.32381 0 55.009524 24.533333 55.009523 55.009524v329.752381c0 30.32381-24.685714 55.009524-55.009523 55.009524H596.571429c-30.32381 0-55.009524-24.685714-55.009524-55.009524V626.895238c0-30.32381 24.533333-55.009524 55.009524-55.009524h329.752381M413.257143 58.819048H83.352381c-30.32381 0-55.009524 24.685714-55.009524 55.009523v329.904762c0 30.32381 24.685714 55.009524 55.009524 55.009524h329.904762c30.32381 0 55.009524-24.685714 55.009524-55.009524V113.828571c0-30.47619-24.685714-55.009524-55.009524-55.009523m0 513.066666H83.352381c-30.32381 0-55.009524 24.533333-55.009524 55.009524v329.752381c0 30.32381 24.685714 55.009524 55.009524 55.009524h329.904762c30.32381 0 55.009524-24.685714 55.009524-55.009524V626.895238c0-30.47619-24.685714-55.009524-55.009524-55.009524" p-id="6344" fill="#ffffff"></path></svg>